<?xml version="1.0" standalone="no"?>
<!DOCTYPE svg PUBLIC "-//W3C//DTD SVG 20010904//EN"
 "http://www.w3.org/TR/2001/REC-SVG-20010904/DTD/svg10.dtd">
<svg version="1.0" xmlns="http://www.w3.org/2000/svg"
 width="260.000000pt" height="260.000000pt" viewBox="0 0 260.000000 260.000000"
 preserveAspectRatio="xMidYMid meet">
<metadata>
Created by potrace 1.14, written by Peter Selinger 2001-2017
</metadata>
<g transform="translate(0.000000,260.000000) scale(0.100000,-0.100000)"
fill="#000000" stroke="none">
<path d="M1015 2550 c-4 -6 -232 -219 -508 -473 l-502 -461 -3 -50 -3 -50 23
19 c13 11 61 54 108 95 47 42 94 82 104 90 24 18 26 22 -52 -98 -49 -78 -58
-86 -118 -113 l-64 -29 0 -50 c0 -28 2 -50 5 -50 2 0 52 23 111 50 59 28 108
50 110 50 1 0 -6 -30 -17 -67 -10 -38 -19 -69 -19 -70 0 -1 -43 -38 -95 -83
l-95 -82 0 -69 c0 -38 3 -69 8 -69 4 1 77 45 162 99 85 54 156 97 158 96 2 -2
0 -35 -4 -75 l-7 -72 -29 6 c-20 4 -34 0 -48 -14 -11 -11 -20 -24 -20 -30 0
-20 52 -42 112 -47 35 -3 69 -9 75 -12 8 -4 -73 -66 -197 -151 l-209 -145 -1
-128 0 -128 128 109 c70 59 210 175 312 258 l185 149 80 -1 c93 -2 205 -30
269 -68 25 -14 66 -53 91 -86 25 -33 53 -63 61 -68 13 -7 -55 -60 -295 -231
-276 -198 -365 -271 -348 -287 3 -3 60 29 128 70 67 42 124 74 127 72 2 -2
-10 -36 -27 -75 -17 -40 -25 -69 -18 -65 6 4 89 61 184 126 l172 119 33 -15
c18 -7 85 -37 148 -65 l115 -52 -40 43 c-22 24 -62 66 -89 95 -56 59 -55 64 5
131 27 30 32 32 49 20 10 -7 71 -53 134 -101 108 -83 136 -96 136 -61 0 8 5
14 11 14 5 0 99 -39 207 -86 108 -48 203 -89 210 -91 10 -4 11 1 6 21 -3 15
-2 26 4 26 5 0 72 -23 148 -50 77 -28 144 -48 151 -46 7 3 31 -1 54 -9 23 -9
44 -13 46 -11 3 2 -2 16 -9 31 -13 23 -61 45 -344 156 -181 72 -339 134 -352
140 -23 9 -22 10 30 52 167 136 531 383 548 372 5 -3 10 -12 10 -19 0 -7 6
-21 14 -31 12 -16 16 -17 30 -6 13 11 16 9 22 -16 4 -15 13 -41 21 -56 11 -22
17 -26 27 -17 11 8 37 -14 117 -101 96 -103 104 -110 107 -85 2 15 -11 63 -28
108 -17 44 -29 83 -27 85 2 2 16 -6 30 -18 l27 -20 0 116 0 117 -67 74 c-36
41 -68 72 -70 71 -2 -2 6 -27 18 -56 12 -28 20 -54 17 -57 -3 -2 -41 20 -84
49 -75 52 -80 54 -101 40 l-23 -15 0 69 c0 58 -8 91 -45 193 -25 68 -42 127
-38 131 4 4 64 -55 132 -131 68 -77 126 -140 129 -140 5 0 6 -4 -42 110 l-36
85 62 -66 c60 -62 65 -71 103 -189 l40 -123 3 184 3 184 -38 33 c-115 102
-575 469 -600 479 -6 2 -33 -12 -61 -31 l-49 -36 -120 92 c-165 130 -392 314
-561 457 -78 67 -144 121 -147 121 -2 0 -7 -5 -10 -10z m-98 -311 c14 24 29
39 33 34 4 -4 17 -41 29 -82 18 -57 32 -84 69 -123 l46 -50 -44 -86 -45 -86
-133 3 c-124 2 -203 16 -241 40 -17 11 -10 24 148 245 l106 149 3 -43 3 -44
26 43z m318 -149 c55 -66 103 -120 107 -120 3 0 -2 28 -13 62 -10 34 -17 63
-16 65 4 3 114 -92 190 -164 32 -31 57 -56 55 -57 -2 -1 -21 -8 -43 -14 -22
-6 -65 -27 -95 -46 -120 -76 -110 -75 -195 -33 -41 21 -89 40 -105 44 -17 3
-30 8 -30 10 0 3 16 52 36 110 l36 105 -21 29 c-15 20 -21 43 -21 79 0 27 3
50 8 49 4 0 52 -54 107 -119z m782 -327 c27 -65 173 -466 170 -469 -1 -2 -61
-10 -132 -19 -305 -37 -374 -47 -453 -65 -98 -23 -142 -44 -203 -99 -26 -22
-49 -38 -52 -34 -4 3 -6 133 -7 288 l0 283 52 42 c29 23 76 54 103 68 49 26
53 27 235 24 102 -1 201 2 220 7 19 5 39 9 43 10 4 1 15 -16 24 -36z m-1328
13 c31 -8 133 -17 226 -20 l170 -6 85 -42 85 -43 3 -282 c1 -156 0 -283 -3
-283 -4 0 -27 16 -52 35 -81 62 -178 87 -463 120 -216 24 -278 33 -288 39 -10
6 2 44 91 298 56 158 73 198 83 198 4 0 32 -6 63 -14z m-219 -126 c-6 -12 -14
-20 -17 -17 -2 3 1 14 8 26 17 26 24 19 9 -9z m-92 -270 c-22 -61 -42 -80 -84
-80 -29 0 -2 55 50 101 28 26 52 46 54 44 1 -1 -8 -30 -20 -65z m292 -201
c369 -41 418 -56 545 -164 48 -41 93 -75 101 -75 7 0 44 26 81 58 109 92 122
101 191 122 63 20 360 62 535 76 l88 7 -7 -59 c-8 -63 -15 -74 -54 -74 -52 0
-344 -41 -408 -57 -117 -28 -170 -62 -248 -158 -55 -67 -92 -80 -214 -72 l-85
5 -75 80 c-41 44 -91 89 -110 100 -61 35 -170 60 -355 82 -99 11 -196 24 -215
28 -34 7 -35 8 -32 52 5 74 9 81 45 75 18 -3 115 -14 217 -26z m1375 -218
c-10 -9 -274 -195 -428 -301 l-79 -54 -86 44 -87 43 58 12 c55 11 64 17 145
101 77 80 94 92 152 111 36 12 99 27 140 32 41 6 86 13 100 15 52 7 94 6 85
-3z"/>
</g>
</svg>
